<svg xmlns="http://www.w3.org/2000/svg" version="1.1" xmlns:xlink="http://www.w3.org/1999/xlink" xmlns:svgjs="http://svgjs.dev/svgjs" width="200" height="200"><svg id="SvgjsSvg1005" data-name="Capa 1" xmlns="http://www.w3.org/2000/svg" viewBox="0 0 200 200">
  <defs>
    <style>
      .cls-1 {
        fill: #1859e8;
      }
    </style>
  </defs>
  <path class="cls-1" d="M189.64,53.98c-6.92-13.76-17.17-24.69-30.76-32.81-13.59-8.12-30.47-12.18-50.64-12.18H38.24v43.58h69.98c8.54,0,15.89,1.97,22.05,5.9,6.15,3.93,10.85,9.44,14.1,16.53,3.24,7.09,4.87,15.34,4.87,24.74s-1.63,17.22-4.87,24.48c-3.25,7.27-7.91,12.95-13.97,17.05-6.07,4.1-13.46,6.15-22.17,6.15H38.24v43.58h69.98c18.46,0,34.56-3.76,48.32-11.28,13.76-7.52,24.44-18.11,32.04-31.79,7.6-13.67,11.41-29.74,11.41-48.2,0-16.75-3.46-32-10.38-45.76h.02Z"></path>
  <path class="cls-1" d="M67.65,75.59c-2.88-3.47-6.37-6.41-10.29-8.69-5.63-3.26-12.16-5.14-19.12-5.14-21.09,0-38.24,17.15-38.24,38.24s17.15,38.24,38.24,38.24c6.96,0,13.49-1.88,19.12-5.14,3.92-2.28,7.41-5.22,10.29-8.69,5.51-6.63,8.83-15.14,8.83-24.41s-3.32-17.78-8.83-24.41ZM38.24,126c-14.33,0-25.98-11.66-25.98-25.98s11.66-25.98,25.98-25.98c3.1,0,6.07.57,8.83,1.58-5.51,6.63-8.83,15.14-8.83,24.41s3.32,17.78,8.83,24.41c-2.76,1-5.72,1.58-8.83,1.58v-.02h0Z"></path>
</svg><style>@media (prefers-color-scheme: light) { :root { filter: none; } }
@media (prefers-color-scheme: dark) { :root { filter: none; } }
</style></svg>