<?xml version="1.0" encoding="UTF-8"?><svg id="uuid-1e31935c-026c-4b43-a2e8-6171ad99ced8" xmlns="http://www.w3.org/2000/svg" viewBox="0 0 200 182.01"><path d="M189.62,44.99c-6.92-13.76-17.17-24.69-30.76-32.81C145.27,4.06,128.39,0,108.22,0H38.24v43.58h69.98c8.54,0,15.89,1.97,22.05,5.9,6.15,3.93,10.85,9.44,14.1,16.53,3.24,7.09,4.87,15.34,4.87,24.74s-1.63,17.22-4.87,24.48c-3.25,7.27-7.91,12.95-13.97,17.05-6.07,4.1-13.46,6.15-22.17,6.15H38.24v43.58h69.98c18.46,0,34.56-3.76,48.32-11.28,13.76-7.52,24.44-18.11,32.04-31.79,7.6-13.67,11.41-29.74,11.41-48.2,0-16.75-3.46-32-10.38-45.76Z" fill="#1859e8" stroke-width="0"/><path d="M67.65,66.6c-2.88-3.47-6.37-6.41-10.29-8.69-5.63-3.26-12.16-5.14-19.12-5.14C17.15,52.76,0,69.92,0,91.01s17.15,38.24,38.24,38.24c6.96,0,13.49-1.88,19.12-5.14,3.92-2.28,7.41-5.22,10.29-8.69,5.51-6.63,8.83-15.14,8.83-24.41s-3.32-17.78-8.83-24.41ZM38.24,116.99c-14.33,0-25.98-11.66-25.98-25.98s11.66-25.98,25.98-25.98c3.1,0,6.07.57,8.83,1.58-5.51,6.63-8.83,15.14-8.83,24.41s3.32,17.78,8.83,24.41c-2.76,1-5.72,1.58-8.83,1.58Z" fill="#1859e8" stroke-width="0"/></svg>